<svg width="108" height="110" viewBox="0 0 108 110" fill="none" xmlns="http://www.w3.org/2000/svg">
    <path d="M0 50C0 22.3858 22.3858 0 50 0H58C85.6142 0 108 22.3858 108 50V105C108 106.657 106.657 108 105 108H34C15.2223 108 0 92.7777 0 74V50Z" fill="#69D41A"/>
    <path d="M47.7727 70.4666V69.4403C47.7929 65.9188 48.1048 63.1116 48.7085 61.0188C49.3323 58.926 50.2378 57.2357 51.4251 55.9478C52.6123 54.6599 54.0411 53.4928 55.7113 52.4464C56.9589 51.6415 58.0758 50.8063 59.0618 49.941C60.0478 49.0758 60.8326 48.1199 61.4162 47.0735C61.9998 46.007 62.2916 44.8197 62.2916 43.5117C62.2916 42.1232 61.9595 40.9058 61.2955 39.8594C60.6314 38.813 59.7359 38.008 58.609 37.4446C57.5023 36.8812 56.2747 36.5994 54.9265 36.5994C53.6185 36.5994 52.3809 36.8912 51.2138 37.4748C50.0466 38.0382 49.0908 38.8834 48.3462 40.0103C47.6017 41.1171 47.1992 42.4955 47.1389 44.1456H34.8235C34.9241 40.121 35.89 36.8007 37.7212 34.1847C39.5524 31.5485 41.9773 29.5865 44.9957 28.2986C48.0142 26.9906 51.3446 26.3366 54.9869 26.3366C58.9914 26.3366 62.533 27.0007 65.6119 28.3288C68.6907 29.6368 71.1055 31.5385 72.8562 34.0337C74.6069 36.529 75.4822 39.5374 75.4822 43.0589C75.4822 45.4133 75.0898 47.5062 74.305 49.3374C73.5404 51.1484 72.4638 52.7583 71.0753 54.1669C69.6868 55.5554 68.0468 56.8131 66.1552 57.94C64.5655 58.8858 63.2575 59.8718 62.2312 60.8981C61.225 61.9244 60.4704 63.1116 59.9673 64.4599C59.4844 65.8081 59.2328 67.4683 59.2127 69.4403V70.4666H47.7727ZM53.7493 89.7848C51.737 89.7848 50.0165 89.0805 48.5877 87.6719C47.1791 86.2431 46.4848 84.5327 46.505 82.5405C46.4848 80.5684 47.1791 78.8781 48.5877 77.4695C50.0165 76.0608 51.737 75.3565 53.7493 75.3565C55.661 75.3565 57.3413 76.0608 58.7901 77.4695C60.239 78.8781 60.9735 80.5684 60.9936 82.5405C60.9735 83.8686 60.6213 85.0861 59.9371 86.1928C59.2731 87.2795 58.3977 88.1548 57.3111 88.8189C56.2244 89.4628 55.0372 89.7848 53.7493 89.7848Z" fill="white"/>
</svg>
